<svg viewBox="0 0 48 48" xmlns="http://www.w3.org/2000/svg" xmlns:xlink="http://www.w3.org/1999/xlink"><linearGradient id="a" gradientTransform="matrix(45 0 0 45.733 1.5 1.133)" gradientUnits="userSpaceOnUse" x1=".031183" x2=".95838" y1=".108666" y2=".975195"><stop offset="0" stop-color="#c751fb"/><stop offset=".975" stop-color="#6d44de"/></linearGradient><path d="m5.678 23.067c0 1.153-.936 2.089-2.089 2.089s-2.089-.936-2.089-2.089v-15.667c0-1.661.658-3.259 1.838-4.428 1.17-1.181 2.768-1.839 4.429-1.839h18.8c1.153 0 2.089.936 2.089 2.089s-.936 2.089-2.089 2.089h-18.8c-.554 0-1.087.219-1.473.616-.397.387-.616.919-.616 1.473zm36.644 9.177c0-1.152.936-2.088 2.089-2.088s2.089.936 2.089 2.088v8.356c0 1.661-.658 3.259-1.838 4.428-1.17 1.181-2.768 1.839-4.429 1.839h-32.466c-1.661 0-3.259-.658-4.429-1.839-1.18-1.169-1.838-2.767-1.838-4.428v-2.089c0-1.153.936-2.089 2.089-2.089s2.089.936 2.089 2.089v2.089c0 .554.219 1.086.616 1.473.386.397.919.616 1.473.616h32.466c.554 0 1.087-.219 1.473-.616.397-.387.616-.919.616-1.473zm-6.355-26.933c-1.153 0-2.089-.936-2.089-2.089s.936-2.089 2.089-2.089h4.266c1.661 0 3.259.658 4.429 1.839 1.18 1.169 1.838 2.767 1.838 4.428v9.4c0 1.153-.936 2.089-2.089 2.089s-2.089-.936-2.089-2.089v-9.4c0-.554-.219-1.086-.616-1.473-.386-.397-.919-.616-1.473-.616zm-13.37 4.441c-1.883.003-4.018.47-6.443 1.517-2.874 1.24-4.76 3.116-5.796 5.278-1.036 2.163-1.236 4.567-.968 6.905.536 4.676 2.885 9.149 4.828 11.604.346.437.98.51 1.417.164.437-.345.51-.98.164-1.417-1.678-2.12-3.931-6.443-4.405-10.581-.237-2.069-.044-4.077.783-5.803.827-1.727 2.275-3.219 4.776-4.298 3.403-1.47 5.898-1.609 7.864-1.067 1.967.543 3.486 1.8 4.828 3.407s2.469 3.542 3.621 5.296c1.151 1.753 2.312 3.371 3.991 4.211.24.119.517.139.771.054.254-.084.464-.267.583-.506.249-.499.047-1.104-.451-1.353-1.036-.518-2.101-1.829-3.207-3.513s-2.266-3.695-3.759-5.483c-1.494-1.787-3.357-3.373-5.841-4.058-.62-.171-1.275-.284-1.965-.332-.259-.018-.522-.026-.791-.026zm-.081 3.879c-1.539-.028-3.289.425-5.269 1.445-3.407 1.756-4.749 5.489-3.953 9.623.795 4.135 3.556 8.817 8.248 13.273.404.383 1.043.367 1.426-.037.185-.194.285-.454.278-.721-.007-.268-.12-.522-.315-.706-4.463-4.239-6.974-8.64-7.656-12.19-.683-3.551.289-6.104 2.896-7.447 2.706-1.395 4.475-1.464 5.865-.928s2.547 1.808 3.667 3.506c2.24 3.395 4.133 8.391 8.539 10.467.242.115.52.128.772.038.252-.091.457-.278.571-.52.238-.504.021-1.105-.483-1.342-3.428-1.616-5.293-6.084-7.715-9.755-1.211-1.835-2.61-3.499-4.625-4.276-.503-.194-1.036-.325-1.599-.388-.212-.023-.428-.037-.647-.041zm-.733 3.98c-.392.007-.802.061-1.225.166-2.006.501-3.278 1.909-3.53 3.582s.284 3.495 1.181 5.396c1.794 3.802 5.175 7.962 8.311 10.966.193.186.452.287.72.281.267-.006.522-.118.707-.311.385-.403.372-1.041-.031-1.426-2.981-2.856-6.268-6.951-7.882-10.371-.807-1.71-1.16-3.242-1.011-4.234.15-.993.57-1.562 2.023-1.925 1.243-.31 1.714-.122 2.301.424.586.546 1.19 1.641 1.926 3.049 1.472 2.817 3.608 6.804 8.795 9.826.481.281 1.099.118 1.379-.363.135-.231.173-.507.105-.765-.069-.259-.237-.481-.468-.615-4.739-2.762-6.556-6.211-8.022-9.016-.733-1.403-1.344-2.666-2.339-3.593-.747-.695-1.764-1.093-2.94-1.071zm.11 4.195c-.128-.002-.254.021-.373.066-.52.199-.781.782-.583 1.302 3.262 8.548 10.252 12.751 10.252 12.751.477.287 1.096.134 1.385-.342.138-.23.18-.504.115-.764-.064-.26-.229-.484-.458-.622 0 0-6.41-3.884-9.409-11.742-.147-.386-.516-.644-.929-.649z" fill="url(#a)" fill-rule="evenodd"/></svg>
